<svg width="132" height="132" viewBox="0 0 132 132" fill="none" xmlns="http://www.w3.org/2000/svg">
<path d="M110.576 62.027H69.5674V21.0179C69.5674 19.9303 69.1353 18.8872 68.3663 18.1181C67.5972 17.3491 66.5541 16.917 65.4665 16.917C64.3789 16.917 63.3358 17.3491 62.5667 18.1181C61.7976 18.8872 61.3656 19.9303 61.3656 21.0179V62.027H20.3565C19.2689 62.027 18.2258 62.459 17.4567 63.2281C16.6877 63.9972 16.2556 65.0402 16.2556 66.1279C16.2556 67.2155 16.6877 68.2586 17.4567 69.0277C18.2258 69.7967 19.2689 70.2288 20.3565 70.2288H61.3656V111.238C61.3656 112.325 61.7976 113.369 62.5667 114.138C63.3358 114.907 64.3789 115.339 65.4665 115.339C66.5541 115.339 67.5972 114.907 68.3663 114.138C69.1353 113.369 69.5674 112.325 69.5674 111.238V70.2288H110.576C111.664 70.2288 112.707 69.7967 113.476 69.0277C114.245 68.2586 114.677 67.2155 114.677 66.1279C114.677 65.0402 114.245 63.9972 113.476 63.2281C112.707 62.459 111.664 62.027 110.576 62.027Z" fill="#FF7BFB"/>
</svg>
