<svg width="25" height="24" viewBox="0 0 25 24" fill="none" xmlns="http://www.w3.org/2000/svg">
<path fill-rule="evenodd" clip-rule="evenodd" d="M12.7444 22.2446C18.2672 22.2446 22.7444 17.7675 22.7444 12.2446C22.7444 6.72178 18.2672 2.24463 12.7444 2.24463C7.22154 2.24463 2.74438 6.72178 2.74438 12.2446C2.74438 17.7675 7.22154 22.2446 12.7444 22.2446Z" fill="#050309"/>
<path d="M9.44862 11.8937C9.05875 11.5025 8.42665 11.5025 8.03679 11.8937C7.64692 12.2848 7.64692 12.9189 8.03679 13.31L11.4049 16.6888L18.0075 10.0651C18.3974 9.67402 18.3974 9.03991 18.0075 8.6488C17.6177 8.25769 16.9856 8.25769 16.5957 8.6488L11.4049 13.8561L9.44862 11.8937Z" fill="white"/>
<path d="M9.44862 11.8937C9.05875 11.5025 8.42665 11.5025 8.03679 11.8937C7.64692 12.2848 7.64692 12.9189 8.03679 13.31L11.4049 16.6888L18.0075 10.0651C18.3974 9.67402 18.3974 9.03991 18.0075 8.6488C17.6177 8.25769 16.9856 8.25769 16.5957 8.6488L11.4049 13.8561L9.44862 11.8937Z" fill="white"/>
<path d="M9.44862 11.8937C9.05875 11.5025 8.42665 11.5025 8.03679 11.8937C7.64692 12.2848 7.64692 12.9189 8.03679 13.31L11.4049 16.6888L18.0075 10.0651C18.3974 9.67402 18.3974 9.03991 18.0075 8.6488C17.6177 8.25769 16.9856 8.25769 16.5957 8.6488L11.4049 13.8561L9.44862 11.8937Z" fill="white"/>
</svg>
