<svg width="100%" height="100%" viewBox="0 0 24 24" fill="none" xmlns="http://www.w3.org/2000/svg">
<path d="M10.8169 2.07759C10.7417 2.13362 10.6886 2.28017 10.5913 2.68966C10.5205 2.98707 10.3922 3.43103 10.3038 3.68103C10.2153 3.93103 10.0251 4.36638 9.88352 4.65086C9.73754 4.93534 9.48539 5.35345 9.32171 5.57759C9.15361 5.80172 8.80414 6.2069 8.53429 6.47414C8.26445 6.74569 7.68937 7.26293 7.25142 7.62069C6.81347 7.97845 6.28705 8.42672 6.08356 8.61638C5.88007 8.80603 5.59696 9.10776 5.44655 9.28448C5.30057 9.46121 5.11477 9.71121 5.03515 9.8319C4.9511 9.9569 4.81838 10.1897 4.73433 10.3491C4.65471 10.5129 4.522 10.819 4.44679 11.0302C4.36717 11.2414 4.25657 11.6509 4.19907 11.9353C4.14156 12.2198 4.07078 12.6767 4.04866 12.9483C4.02212 13.2198 4 13.7112 4 14.0345C4 14.3621 4.02212 14.819 4.04866 15.0474C4.07078 15.2802 4.14598 15.694 4.20791 15.9655C4.26985 16.2371 4.38044 16.625 4.45122 16.8276C4.522 17.0302 4.67683 17.3879 4.79627 17.625C4.91128 17.8621 5.12804 18.2328 5.2696 18.444C5.41558 18.6552 5.64119 18.9569 5.7739 19.1121C5.90219 19.2672 6.14992 19.5259 6.32244 19.6897C6.49054 19.8534 6.76039 20.0905 6.91964 20.2112C7.0789 20.3319 7.35759 20.5302 7.53896 20.6466C7.72033 20.7672 8.02114 20.944 8.20252 21.0388C8.38389 21.1336 8.76433 21.3017 9.04302 21.4095C9.32171 21.5172 9.74197 21.6595 9.972 21.7198C10.202 21.7802 10.6621 21.8664 10.9894 21.9138C11.3168 21.9612 11.8034 22 12.0733 22C12.3431 22 12.7987 21.9698 13.0907 21.931C13.3827 21.8922 13.8118 21.8147 14.0418 21.7586C14.2718 21.7026 14.6523 21.5862 14.8823 21.5C15.1123 21.4181 15.5105 21.2414 15.767 21.1078C16.0236 20.9784 16.3598 20.7802 16.5191 20.6724C16.6783 20.5647 16.9438 20.3664 17.1163 20.2284C17.2888 20.0948 17.625 19.7845 17.8683 19.5345C18.1116 19.2888 18.4434 18.9052 18.6071 18.681C18.7707 18.4569 19.0229 18.0388 19.1689 17.7543C19.3149 17.4698 19.4962 17.0517 19.5714 16.8276C19.6511 16.6034 19.7616 16.194 19.8192 15.9224C19.8767 15.6509 19.943 15.1552 19.974 14.8233C20.0094 14.3707 20.0094 14.069 19.9696 13.6164C19.943 13.2845 19.8811 12.8103 19.8369 12.5603C19.7882 12.3103 19.6997 11.931 19.6378 11.7198C19.5714 11.5086 19.452 11.1466 19.3635 10.9224C19.275 10.6983 19.1158 10.3362 19.0052 10.125C18.899 9.91379 18.7177 9.59914 18.6071 9.43535C18.5009 9.27155 18.3107 9.01724 18.1912 8.875C18.0674 8.73276 17.9391 8.60345 17.9081 8.5819C17.8727 8.56466 17.771 8.55603 17.6825 8.56034C17.5321 8.57328 17.4967 8.59914 17.3817 8.78448C17.3109 8.89655 17.9363 9.51812 17.1974 11.0805C16.8893 11.5476 16.7867 11.7816 16.4621 12.1611C16.1375 12.5406 15.7818 12.9195 15.3099 12.9195C14.8381 12.9195 15.3099 11.5402 15.4132 10.3319C15.4353 10.0388 15.4574 9.56466 15.4574 9.27155C15.4574 8.98276 15.4264 8.49569 15.391 8.18535C15.3556 7.875 15.276 7.43103 15.2185 7.19397C15.161 6.9569 15.0371 6.56897 14.9487 6.3319C14.8558 6.09483 14.6965 5.73707 14.5948 5.53448C14.4886 5.3319 14.2851 4.99569 14.1435 4.78017C13.9976 4.56466 13.7321 4.21983 13.5463 4.00431C13.365 3.78879 13.0553 3.47414 12.8651 3.29741C12.6749 3.125 12.3564 2.86207 12.1617 2.71121C11.9671 2.56466 11.6574 2.34052 11.4761 2.21983C11.2814 2.09052 11.0956 2 11.0293 2C10.9629 2 10.87 2.03448 10.8169 2.07328V2.07759Z" fill="currentColor"/>
</svg>