<svg width="63" height="63" viewBox="0 0 63 63" fill="none" xmlns="http://www.w3.org/2000/svg">
<circle cx="31.5" cy="31.5" r="19.5" fill="white"/>
<path fill-rule="evenodd" clip-rule="evenodd" d="M31.5 63C48.897 63 63 48.897 63 31.5C63 14.103 48.897 0 31.5 0C14.103 0 0 14.103 0 31.5C0 48.897 14.103 63 31.5 63ZM47.3748 32.5906C47.5621 32.2577 47.66 31.882 47.6591 31.5C47.66 31.118 47.5621 30.7423 47.3748 30.4094C47.1875 30.0765 46.9173 29.7977 46.5903 29.6002L26.3291 17.2055C25.9875 16.9963 25.5962 16.8821 25.1957 16.8747C24.7953 16.8673 24.4001 16.9669 24.0509 17.1633C23.7052 17.3566 23.4171 17.6386 23.2164 17.9801C23.0157 18.3217 22.9097 18.7106 22.9091 19.1067V43.8933C22.9097 44.2894 23.0157 44.6783 23.2164 45.0199C23.4171 45.3614 23.7052 45.6434 24.0509 45.8367C24.4001 46.0331 24.7953 46.1327 25.1957 46.1253C25.5962 46.1179 25.9875 46.0037 26.3291 45.7945L46.5903 33.3998C46.9173 33.2023 47.1875 32.9235 47.3748 32.5906Z" fill="url(#paint0_linear_71_4082)"/>
<defs>
<linearGradient id="paint0_linear_71_4082" x1="28.5" y1="63" x2="48.5" y2="6.5" gradientUnits="userSpaceOnUse">
<stop stop-color="#FF7AFB"/>
<stop offset="1" stop-color="#7C2BFE"/>
</linearGradient>
</defs>
</svg>
