<svg width="151" height="55" viewBox="0 0 151 55" fill="none" xmlns="http://www.w3.org/2000/svg">
<g clip-path="url(#clip0_669_1496)">
<mask id="mask0_669_1496" style="mask-type:luminance" maskUnits="userSpaceOnUse" x="0" y="0" width="151" height="55">
<path d="M151 0H0.600098V54.144H151V0Z" fill="white"/>
</mask>
<g mask="url(#mask0_669_1496)">
<path d="M30.5676 42.6436H20.4478L30.5676 27.3404H40.6875L30.5676 42.6436Z" fill="white"/>
<path d="M26.8652 11.5436H37.2318L26.8652 27.3403H16.4985L26.8652 11.5436Z" fill="white"/>
<path d="M61.3321 24.8565C61.3321 25.7948 61.1058 26.6747 60.6533 27.496C60.2176 28.317 59.5222 28.979 58.5671 29.4819C57.6285 29.9845 56.4387 30.2359 54.9975 30.2359H52.0562V36.9727H48.5371V19.4268H54.9975C56.3549 19.4268 57.5112 19.6614 58.4664 20.1307C59.4218 20.5998 60.1338 21.245 60.6032 22.0662C61.0893 22.8873 61.3321 23.8175 61.3321 24.8565ZM54.8465 27.3954C55.8186 27.3954 56.5391 27.1777 57.0085 26.7416C57.4777 26.2894 57.7123 25.6609 57.7123 24.8565C57.7123 23.1472 56.7571 22.2924 54.8465 22.2924H52.0562V27.3954H54.8465Z" fill="white"/>
<path d="M66.3448 25.2084C66.7974 24.471 67.3838 23.8928 68.1044 23.4739C68.8418 23.0549 69.6797 22.8454 70.6183 22.8454V26.5405H69.6881C68.5821 26.5405 67.7442 26.8003 67.1744 27.3201C66.6215 27.8395 66.3448 28.7443 66.3448 30.0348V36.9726H62.8257V23.0466H66.3448V25.2084Z" fill="white"/>
<path d="M78.167 37.199C76.8262 37.199 75.6194 36.9058 74.547 36.3193C73.4745 35.716 72.628 34.8696 72.0081 33.7802C71.4048 32.6909 71.103 31.4342 71.103 30.0096C71.103 28.5853 71.4132 27.3284 72.0333 26.2391C72.6701 25.1497 73.5331 24.3119 74.6225 23.7253C75.7118 23.122 76.927 22.8203 78.2678 22.8203C79.6078 22.8203 80.8231 23.122 81.912 23.7253C83.0016 24.3119 83.8559 25.1497 84.4763 26.2391C85.1132 27.3284 85.4313 28.5853 85.4313 30.0096C85.4313 31.4342 85.105 32.6909 84.4515 33.7802C83.8145 34.8696 82.943 35.716 81.8368 36.3193C80.7479 36.9058 79.5244 37.199 78.167 37.199ZM78.167 34.1321C78.8032 34.1321 79.3988 33.9813 79.9515 33.6798C80.5215 33.3614 80.9742 32.892 81.3089 32.2721C81.6443 31.6519 81.812 30.8979 81.812 30.0096C81.812 28.6857 81.46 27.6719 80.7561 26.9679C80.0688 26.2474 79.2228 25.8872 78.2174 25.8872C77.212 25.8872 76.3652 26.2474 75.6783 26.9679C75.0078 27.6719 74.6728 28.6857 74.6728 30.0096C74.6728 31.3335 74.9995 32.3559 75.6532 33.0765C76.3231 33.7802 77.1616 34.1321 78.167 34.1321Z" fill="white"/>
<path d="M90.5267 34.1824H94.3062V36.9727H87.0073V17.2649H90.5267V34.1824Z" fill="white"/>
<path d="M97.036 21.3875C96.4164 21.3875 95.8967 21.1948 95.4779 20.8093C95.0756 20.4072 94.874 19.9128 94.874 19.3262C94.874 18.7397 95.0756 18.2537 95.4779 17.8683C95.8967 17.4661 96.4164 17.2649 97.036 17.2649C97.6564 17.2649 98.167 17.4661 98.5694 17.8683C98.9882 18.2537 99.198 18.7397 99.198 19.3262C99.198 19.9128 98.9882 20.4072 98.5694 20.8093C98.167 21.1948 97.6564 21.3875 97.036 21.3875ZM98.7701 23.0466V36.9727H95.2515V23.0466H98.7701Z" fill="white"/>
<path d="M108.96 22.8454C110.619 22.8454 111.96 23.3733 112.982 24.4291C114.004 25.4681 114.515 26.9262 114.515 28.803V36.9726H110.996V29.2807C110.996 28.1746 110.719 27.3283 110.166 26.7416C109.613 26.1384 108.859 25.8368 107.904 25.8368C106.932 25.8368 106.161 26.1384 105.591 26.7416C105.038 27.3283 104.762 28.1746 104.762 29.2807V36.9726H101.242V23.0466H104.762V24.7811C105.231 24.1777 105.826 23.7085 106.547 23.3733C107.284 23.0214 108.088 22.8454 108.96 22.8454Z" fill="white"/>
<path d="M129.801 29.7081C129.801 30.2108 129.768 30.6633 129.701 31.0655H119.52C119.603 32.071 119.956 32.8586 120.576 33.4284C121.196 33.9982 121.959 34.2832 122.863 34.2832C124.17 34.2832 125.101 33.7216 125.654 32.5988H129.449C129.047 33.9396 128.276 35.0455 127.137 35.9171C125.997 36.7716 124.598 37.199 122.939 37.199C121.598 37.199 120.392 36.9058 119.319 36.3193C118.263 35.716 117.434 34.8696 116.83 33.7802C116.244 32.6909 115.95 31.4342 115.95 30.0096C115.95 28.5685 116.244 27.3032 116.83 26.2139C117.417 25.1246 118.238 24.2867 119.294 23.7002C120.349 23.1136 121.565 22.8203 122.939 22.8203C124.263 22.8203 125.444 23.1052 126.483 23.675C127.539 24.2448 128.352 25.0575 128.921 26.1135C129.508 27.1525 129.801 28.3505 129.801 29.7081ZM126.156 28.7026C126.14 27.7975 125.813 27.077 125.176 26.5406C124.54 25.9876 123.76 25.7113 122.839 25.7113C121.967 25.7113 121.229 25.9793 120.626 26.5157C120.04 27.0352 119.679 27.7641 119.545 28.7026H126.156Z" fill="white"/>
</g>
</g>
<defs>
<clipPath id="clip0_669_1496">
<rect width="150.4" height="54.144" fill="white" transform="translate(0.600098)"/>
</clipPath>
</defs>
</svg>
