<svg width="151" height="55" viewBox="0 0 151 55" fill="none" xmlns="http://www.w3.org/2000/svg">
<g clip-path="url(#clip0_669_1482)">
<mask id="mask0_669_1482" style="mask-type:luminance" maskUnits="userSpaceOnUse" x="0" y="0" width="151" height="55">
<path d="M150.6 0H0.199951V54.144H150.6V0Z" fill="white"/>
</mask>
<g mask="url(#mask0_669_1482)">
<path d="M65.6171 20.629V38.0342H61.3773V30.8688H54.782V38.0342H50.5422V20.629H54.782V27.4473H61.3773V20.629H65.6171Z" fill="white"/>
<path d="M69.8185 22.7612C69.0746 22.7612 68.4631 22.5463 67.9839 22.1166C67.521 21.6702 67.2896 21.1247 67.2896 20.4801C67.2896 19.819 67.521 19.2735 67.9839 18.8437C68.4631 18.3975 69.0746 18.1743 69.8185 18.1743C70.5459 18.1743 71.1411 18.3975 71.6036 18.8437C72.0832 19.2735 72.3228 19.819 72.3228 20.4801C72.3228 21.1247 72.0832 21.6702 71.6036 22.1166C71.1411 22.5463 70.5459 22.7612 69.8185 22.7612ZM71.9261 24.1992V38.0341H67.6863V24.1992H71.9261Z" fill="white"/>
<path d="M81.7168 34.4392V38.0341H79.56C78.023 38.0341 76.8243 37.6622 75.9647 36.9186C75.1054 36.1581 74.6757 34.9269 74.6757 33.2243V27.72H72.9897V24.1992H74.6757V20.8272H78.9156V24.1992H81.692V27.72H78.9156V33.2738C78.9156 33.6872 79.0148 33.9845 79.2126 34.1664C79.4112 34.3483 79.742 34.4392 80.2045 34.4392H81.7168Z" fill="white"/>
<path d="M96.1288 30.8937C96.1288 31.2904 96.104 31.7038 96.0544 32.1334H86.4596C86.5258 32.993 86.798 33.6541 87.2778 34.117C87.7733 34.5632 88.3764 34.7866 89.0871 34.7866C90.1451 34.7866 90.8806 34.34 91.2942 33.4474H95.8062C95.5753 34.3566 95.1535 35.1748 94.5421 35.9021C93.9473 36.6294 93.1953 37.1998 92.2861 37.6128C91.3769 38.0262 90.3602 38.2328 89.236 38.2328C87.8809 38.2328 86.6739 37.9434 85.6166 37.3651C84.5585 36.7865 83.7321 35.9601 83.1365 34.8857C82.5417 33.8112 82.2446 32.5549 82.2446 31.117C82.2446 29.6787 82.5334 28.4226 83.1124 27.3482C83.7073 26.2738 84.5337 25.4473 85.5918 24.8688C86.6491 24.2903 87.8643 24.0011 89.236 24.0011C90.5753 24.0011 91.765 24.282 92.8065 24.8441C93.848 25.4061 94.6579 26.2077 95.2362 27.2491C95.831 28.2904 96.1288 29.5053 96.1288 30.8937ZM91.7898 29.7781C91.7898 29.0508 91.5424 28.4722 91.046 28.0424C90.5505 27.6127 89.9301 27.3978 89.1871 27.3978C88.4757 27.3978 87.8726 27.6045 87.3763 28.0177C86.8973 28.4309 86.5995 29.0177 86.4844 29.7781H91.7898Z" fill="white"/>
<path d="M96.531 31.117C96.531 29.6787 96.8198 28.4226 97.3988 27.3482C97.9936 26.2738 98.8118 25.4473 99.8533 24.8688C100.911 24.2903 102.118 24.0011 103.473 24.0011C105.208 24.0011 106.654 24.4556 107.812 25.3647C108.986 26.2738 109.754 27.5548 110.117 29.2078H105.605C105.225 28.1499 104.489 27.6209 103.398 27.6209C102.621 27.6209 102.002 27.9268 101.539 28.5384C101.076 29.1334 100.844 29.993 100.844 31.117C100.844 32.241 101.076 33.1087 101.539 33.7202C102.002 34.3152 102.621 34.6128 103.398 34.6128C104.489 34.6128 105.225 34.0841 105.605 33.0259H110.117C109.754 34.646 108.986 35.9187 107.812 36.8442C106.638 37.77 105.192 38.2328 103.473 38.2328C102.118 38.2328 100.911 37.9434 99.8533 37.3651C98.8118 36.7865 97.9936 35.9601 97.3988 34.8857C96.8198 33.8112 96.531 32.5549 96.531 31.117Z" fill="white"/>
<path d="M119.898 24.0505C121.485 24.0505 122.758 24.5794 123.717 25.6373C124.675 26.6786 125.155 28.1167 125.155 29.9514V38.0342H120.94V30.5216C120.94 29.5961 120.7 28.877 120.221 28.3646C119.741 27.8522 119.097 27.5961 118.287 27.5961C117.477 27.5961 116.832 27.8522 116.352 28.3646C115.873 28.877 115.634 29.5961 115.634 30.5216V38.0342H111.394V19.6868H115.634V26.0588C116.064 25.4472 116.65 24.9596 117.394 24.596C118.138 24.2323 118.972 24.0505 119.898 24.0505Z" fill="white"/>
<path d="M28.5894 28.9364V13.8861H33.6072V21.6226C34.4829 21.2846 35.4347 21.0992 36.4296 21.0992C40.7597 21.0992 44.2699 24.6095 44.2699 28.9396V38.0343H39.2522V28.9396C39.2522 27.3808 37.9885 26.117 36.4296 26.117C34.8715 26.117 33.6082 27.3797 33.6072 28.9375V28.9396V38.0343H28.5894V28.9396V28.9364Z" fill="white"/>
<path d="M39.252 18.9039V13.8861H44.2696V18.9039H39.252Z" fill="white"/>
</g>
</g>
<defs>
<clipPath id="clip0_669_1482">
<rect width="150.4" height="54.144" fill="white" transform="translate(0.199951)"/>
</clipPath>
</defs>
</svg>
