<svg width="152" height="55" viewBox="0 0 152 55" fill="none" xmlns="http://www.w3.org/2000/svg">
<g clip-path="url(#clip0_669_1469)">
<mask id="mask0_669_1469" style="mask-type:luminance" maskUnits="userSpaceOnUse" x="0" y="0" width="152" height="55">
<path d="M151.2 0H0.800049V54.144H151.2V0Z" fill="white"/>
</mask>
<g mask="url(#mask0_669_1469)">
<path d="M62.449 19.2884H65.6914V36.7475H62.449V19.2884Z" fill="white"/>
<path d="M76.4252 23.2791C78.1044 23.2791 79.4513 23.7696 80.4657 24.7507C81.4801 25.7318 81.987 27.1867 81.987 29.1155V36.7476H78.8692V29.5147C78.8692 28.3506 78.5947 27.4777 78.0465 26.8957C77.4976 26.2971 76.7162 25.9977 75.702 25.9977C74.5545 25.9977 73.6481 26.347 72.9832 27.0454C72.3181 27.7271 71.9853 28.7166 71.9853 30.0133V36.7476H68.8677V23.4288H71.8357V25.1498C72.3513 24.5345 72.9998 24.0689 73.7814 23.753C74.5629 23.4371 75.4442 23.2791 76.4252 23.2791Z" fill="white"/>
<path d="M96.9222 23.4288L91.21 36.7476H87.9929L82.2815 23.4288H85.5234L89.6639 33.3057L93.9292 23.4288H96.9222Z" fill="white"/>
<path d="M109.779 30.163C109.779 30.3793 109.763 30.6867 109.729 31.0859H99.2782C99.4617 32.0669 99.9354 32.8485 100.7 33.4305C101.482 33.9959 102.446 34.2785 103.593 34.2785C105.057 34.2785 106.262 33.7962 107.21 32.8318L108.881 34.7524C108.283 35.4675 107.526 36.0078 106.612 36.3735C105.696 36.7395 104.666 36.9223 103.519 36.9223C102.055 36.9223 100.767 36.6313 99.6527 36.0495C98.539 35.4675 97.6742 34.6608 97.059 33.6299C96.4597 32.5825 96.1611 31.4018 96.1611 30.0883C96.1611 28.7912 96.4522 27.6273 97.0342 26.5964C97.632 25.5488 98.4555 24.7341 99.503 24.1521C100.551 23.5701 101.731 23.2791 103.045 23.2791C104.341 23.2791 105.497 23.5701 106.512 24.1521C107.543 24.7175 108.341 25.5239 108.906 26.5714C109.488 27.6024 109.779 28.7997 109.779 30.163ZM103.045 25.7733C102.047 25.7733 101.199 26.0726 100.501 26.6712C99.8189 27.2532 99.403 28.0348 99.2534 29.0157H106.811C106.678 28.0514 106.27 27.2698 105.589 26.6712C104.907 26.0726 104.059 25.7733 103.045 25.7733Z" fill="white"/>
<path d="M114.495 25.3742C115.393 23.9775 116.973 23.5285 119.234 23.5285V26.0227C118.968 25.9728 118.727 25.9479 118.51 25.9479C117.297 25.9479 116.349 26.5299 115.667 27.2449C114.986 27.9432 114.644 28.9574 114.644 30.2878V36.7476H111.527V23.4288H114.495V25.3742Z" fill="white"/>
<path d="M129.752 36.0244C129.386 36.3236 128.938 36.5481 128.406 36.6977C127.89 36.8476 127.341 36.9222 126.759 36.9222C125.296 36.9222 124.166 36.5399 123.367 35.7751C122.569 35.0101 122.17 33.8959 122.17 32.4329V26.0227H119.976V23.5285H122.17V20.4856H125.288V23.5285H128.854V26.0227H125.288V32.3579C125.288 33.0065 125.446 33.5051 125.761 33.8545C126.077 34.1869 126.535 34.3534 127.133 34.3534C127.832 34.3534 128.414 34.1703 128.879 33.8046L129.752 36.0244Z" fill="white"/>
<path fill-rule="evenodd" clip-rule="evenodd" d="M54.2953 28.0696C54.2953 36.9032 47.1345 44.064 38.3009 44.064C29.4676 44.064 22.3066 36.9032 22.3066 28.0696C22.3066 19.2362 29.4676 12.0753 38.3009 12.0753C47.1345 12.0753 54.2953 19.2362 54.2953 28.0696ZM49.2686 28.0696C49.2686 34.1267 44.3584 39.037 38.3013 39.037C37.8813 39.037 37.4668 39.0135 37.0591 38.9677C42.5712 38.3885 46.867 33.7263 46.867 28.0605C46.867 22.4234 42.6138 17.7795 37.1415 17.1627C37.5226 17.1227 37.9096 17.1021 38.3013 17.1021C44.3584 17.1021 49.2686 22.0125 49.2686 28.0696ZM34.7593 35.7949C38.374 35.1564 41.1235 31.9406 41.1235 28.0696C41.1235 24.1985 38.374 20.9828 34.7593 20.3445C35.1967 20.2687 35.6466 20.2293 36.1056 20.2293C40.4357 20.2293 43.946 23.7395 43.946 28.0696C43.946 32.3997 40.4357 35.91 36.1056 35.91C35.6466 35.91 35.1967 35.8705 34.7593 35.7949Z" fill="white"/>
</g>
</g>
<defs>
<clipPath id="clip0_669_1469">
<rect width="150.4" height="54.144" fill="white" transform="translate(0.800049)"/>
</clipPath>
</defs>
</svg>
