<svg width="151" height="55" viewBox="0 0 151 55" fill="none" xmlns="http://www.w3.org/2000/svg">
<path d="M36.3061 14.7893L22.3999 31.477H34.9154L33.5248 42.6018L47.431 25.9144H34.9154L36.3061 14.7893Z" fill="white"/>
<path d="M67.1188 26.4214V31.5692H59.6937V38.6198H53.8596V17.7172H68.6787V22.8648H59.6937V26.4214H67.1188Z" fill="white"/>
<path d="M76.8149 17.7172V38.6198H71.4487V17.7172H76.8149Z" fill="white"/>
<path d="M85.6696 22.2409C86.5013 22.2409 87.312 22.4281 88.1023 22.8024C88.9137 23.156 89.5793 23.6136 90.0996 24.1752V22.7089H95.4659V38.6198H90.0996V35.9681C89.7041 36.8417 89.101 37.58 88.2903 38.1832C87.4789 38.7864 86.5013 39.0879 85.3575 39.0879C84.1716 39.0879 83.0587 38.7864 82.0194 38.1832C80.9794 37.58 80.1263 36.6545 79.461 35.4065C78.8162 34.1377 78.4937 32.5467 78.4937 30.6331C78.4937 28.8444 78.8162 27.3262 79.461 26.0782C80.1263 24.8303 81.0004 23.884 82.0818 23.2392C83.1843 22.5737 84.3799 22.2409 85.6696 22.2409ZM86.7923 27.4822C86.0231 27.4822 85.3778 27.7941 84.8582 28.4181C84.3589 29.0421 84.1092 29.7805 84.1092 30.6331C84.1092 31.4861 84.3694 32.2036 84.889 32.7857C85.4094 33.3682 86.096 33.6595 86.9488 33.6595C87.406 33.6595 87.8737 33.5449 88.3527 33.3162C88.8303 33.0667 89.2363 32.7026 89.5687 32.2244C89.9229 31.7251 90.0996 31.0907 90.0996 30.3212V28.7925C89.6417 28.4181 89.122 28.1061 88.5392 27.8565C87.9783 27.607 87.3955 27.4822 86.7923 27.4822Z" fill="white"/>
<path d="M103.789 22.2409C104.829 22.2409 105.786 22.3969 106.659 22.7089C107.553 23 108.271 23.4056 108.812 23.9256V28.1373C108.271 27.8046 107.657 27.4926 106.971 27.2014C106.285 26.8894 105.546 26.7334 104.756 26.7334C104.257 26.7334 103.81 26.8374 103.414 27.0454C103.04 27.2326 102.853 27.5342 102.853 27.9502C102.853 28.2413 102.968 28.4597 103.196 28.6053C103.425 28.7509 103.872 28.9069 104.538 29.0733L105.505 29.3229C108.271 30.03 109.654 31.5172 109.654 33.7843C109.654 34.8241 109.343 35.7495 108.718 36.5609C108.115 37.3513 107.314 37.975 106.316 38.4327C105.338 38.8696 104.278 39.0879 103.134 39.0879C101.948 39.0879 100.846 38.9215 99.8267 38.5886C98.8077 38.2352 97.9339 37.8087 97.206 37.3097V33.1291C97.955 33.5865 98.7972 33.9714 99.7334 34.2833C100.69 34.5954 101.543 34.7513 102.292 34.7513C102.895 34.7513 103.332 34.6785 103.602 34.533C103.893 34.3875 104.039 34.1273 104.039 33.753C104.039 33.4617 103.872 33.2434 103.539 33.0979C103.206 32.9316 102.729 32.7442 102.105 32.5362L100.513 32.037C99.3484 31.6835 98.4957 31.1323 97.955 30.3836C97.4143 29.614 97.1436 28.6781 97.1436 27.5757C97.1436 26.4735 97.4346 25.5271 98.0174 24.7367C98.5994 23.9464 99.3898 23.3328 100.388 22.896C101.407 22.4593 102.541 22.2409 103.789 22.2409Z" fill="white"/>
<path d="M120.723 22.2409C122.346 22.2409 123.667 22.792 124.686 23.8944C125.726 24.9967 126.245 26.6294 126.245 28.7925V38.6198H120.88L120.848 29.6349C120.848 28.8445 120.63 28.2933 120.193 27.9813C119.756 27.6485 119.267 27.4822 118.727 27.4822C118.145 27.4822 117.656 27.6381 117.26 27.9502C116.865 28.2413 116.522 28.5949 116.231 29.0108V38.6198H110.865V17.7172H116.231V24.7679C116.73 24.0816 117.333 23.4888 118.04 22.9897C118.768 22.4905 119.663 22.2409 120.723 22.2409Z" fill="white"/>
<path d="M125.975 17.8388V18.5026H125.177V20.5222H124.418V18.5026H123.618V17.8388H125.975Z" fill="white"/>
<path d="M129.089 17.7987V20.5343H128.331V19.2067L127.775 19.8303H127.548L126.993 19.2067V20.5343H126.234V17.7987H126.502L127.662 18.9653L128.822 17.7987H129.089Z" fill="white"/>
</svg>
