<svg width="116" height="32" viewBox="0 0 116 32" fill="none" xmlns="http://www.w3.org/2000/svg">
<path d="M4.30688 31.7694C3.1563 31.7694 2.07444 31.3212 1.25984 30.508C0.446598 29.695 -0.000820325 28.6142 1.12912e-06 27.4637C1.12912e-06 26.3136 0.44906 25.2326 1.26257 24.4194C1.43289 24.2479 1.62483 24.091 1.86908 23.9262C1.94246 23.875 2.01037 23.8342 2.08047 23.7915C2.23983 23.7 2.39864 23.6165 2.54678 23.5486C2.62756 23.5125 2.71025 23.4752 2.7976 23.4421C2.9523 23.3846 3.12508 23.3334 3.3225 23.2866C3.36193 23.2759 3.39671 23.2666 3.43203 23.2564C3.45421 23.2504 3.47557 23.243 3.49802 23.2378L4.45666 23.1727C4.57824 23.1779 4.7083 23.1932 4.84712 23.2113L4.90189 23.2187C4.93447 23.2225 4.97855 23.2261 5.02264 23.2285L5.06125 23.2312L5.10506 23.24H5.14312C5.21322 23.2428 5.28331 23.2439 5.35259 23.2439C7.00481 23.2439 8.63567 22.5401 9.8276 21.3143C11.0143 20.0936 11.6679 18.4515 11.6211 16.8078L11.6197 16.759L11.6107 16.7081C11.6017 16.6621 11.5992 16.6155 11.5959 16.5693C11.5918 16.514 11.5872 16.4592 11.5803 16.4039L11.5696 16.3072C11.5603 16.2245 11.551 16.1438 11.5455 16.0611L11.6189 15.0994C11.6236 15.0753 11.6323 15.0534 11.6389 15.0299L11.6562 14.9704C11.7005 14.7884 11.7476 14.6054 11.8163 14.4286C11.8517 14.3281 11.8856 14.2539 11.9223 14.1777C11.999 14.0096 12.0784 13.8568 12.1718 13.7002C12.2123 13.6323 12.2517 13.5633 12.2985 13.4968C12.4724 13.2432 12.6307 13.0493 12.7947 12.885C13.6079 12.0718 14.689 11.6244 15.8409 11.6244C16.9907 11.6244 18.0734 12.0713 18.8871 12.8837C20.564 14.5627 20.5629 17.2949 18.8833 18.9742C18.7135 19.1445 18.521 19.3006 18.2762 19.4679C18.2048 19.5166 18.1369 19.5572 18.0687 19.5974C17.914 19.69 17.7579 19.7721 17.6027 19.8436C17.5186 19.8814 17.4345 19.9202 17.3532 19.9501C17.1884 20.0114 17.0137 20.0635 16.8302 20.1048L16.727 20.1336C16.7034 20.1401 16.6807 20.1475 16.6574 20.1535L15.6895 20.2223C15.5761 20.2176 15.4573 20.2023 15.3313 20.1861L15.2454 20.1754C15.2166 20.1708 15.1714 20.1675 15.126 20.1648L15.092 20.1615L15.0427 20.1519H15.0041C14.9335 20.1494 14.8639 20.1486 14.7941 20.1486C13.1419 20.1486 11.5116 20.8515 10.3205 22.0777C9.1332 23.2989 8.47932 24.9426 8.52614 26.5861L8.52751 26.6348L8.53655 26.6835C8.54558 26.7304 8.5475 26.7764 8.55133 26.8229C8.55517 26.8785 8.56009 26.933 8.56667 26.9878C8.56858 27.0203 8.57515 27.0798 8.58255 27.1378C8.58967 27.2038 8.59843 27.2679 8.59843 27.3339V27.3574L8.52888 28.2791C8.5245 28.2985 8.49356 28.4048 8.4848 28.4379C8.43825 28.6367 8.38567 28.8128 8.3268 28.971C8.29476 29.0592 8.26218 29.135 8.22412 29.2144C8.14937 29.3779 8.06804 29.5348 7.97604 29.6942C7.93552 29.7593 7.8876 29.836 7.83886 29.9097C7.67867 30.1419 7.51986 30.3371 7.34982 30.508C6.5385 31.3204 5.45746 31.7686 4.30743 31.7686H4.30688V31.7694Z" fill="white"/>
<path d="M15.9348 31.7694C14.7834 31.7694 13.7016 31.3212 12.8878 30.5074C12.0748 29.6944 11.6271 28.6137 11.6266 27.4631C11.626 26.3139 12.0735 25.2331 12.8859 24.4221C13.0518 24.2553 13.2402 24.102 13.4976 23.924C13.5614 23.8807 13.6301 23.8386 13.7021 23.7972C13.8601 23.7025 14.0124 23.6225 14.1704 23.5497C14.2544 23.5116 14.3366 23.4738 14.4201 23.4423C14.58 23.3835 14.7541 23.3323 14.939 23.2915C14.939 23.2915 15.0904 23.2474 15.1098 23.2427L16.0835 23.1715C16.1985 23.1767 16.3223 23.1934 16.4521 23.2101L16.5241 23.2197C16.572 23.2244 16.612 23.2282 16.6522 23.229C16.6681 23.2304 16.6843 23.2304 16.6996 23.2318L16.7303 23.2359L16.7708 23.24C16.842 23.2419 16.9143 23.2438 16.9855 23.2438C18.6344 23.2433 20.2628 22.5407 21.452 21.3161C22.6387 20.0963 23.2923 18.452 23.2455 16.8086L23.2395 16.6078L23.2217 16.5857C23.2209 16.5791 23.2209 16.5712 23.2203 16.5638C23.2178 16.5169 23.2151 16.4698 23.2105 16.4225L23.1946 16.2845C23.1858 16.2086 23.1759 16.1339 23.1732 16.0577L23.24 15.1259C23.2452 15.1032 23.2789 14.9879 23.2866 14.9532C23.3413 14.7306 23.3893 14.5676 23.444 14.4228C23.4747 14.3363 23.5122 14.2568 23.55 14.1733C23.6187 14.0233 23.6995 13.8705 23.7981 13.7024L23.8167 13.6717C23.8498 13.615 23.8819 13.5592 23.9213 13.5044C24.0976 13.2476 24.2542 13.0542 24.4196 12.8889C25.2337 12.0751 26.3161 11.6268 27.4667 11.6268C28.6164 11.6268 29.6972 12.0742 30.5104 12.8869C32.1884 14.5652 32.1884 17.2987 30.5104 18.9788C30.3475 19.1409 30.1534 19.2978 29.9006 19.4723C29.8519 19.5057 29.8054 19.5336 29.7588 19.5615L29.6835 19.6083C29.5395 19.6938 29.3826 19.7759 29.2298 19.846C29.1435 19.8846 29.0625 19.9219 28.9768 19.9539C28.8262 20.0109 28.66 20.0588 28.4505 20.1089C28.4086 20.1187 28.3747 20.1294 28.341 20.1396C28.3174 20.1456 28.2955 20.1527 28.2728 20.1582L27.3158 20.2242C27.1756 20.2181 27.0242 20.1976 26.8774 20.1782C26.8273 20.1721 26.7887 20.1702 26.7506 20.168C26.7361 20.1675 26.7216 20.1675 26.7068 20.1653L26.6252 20.1568C26.554 20.1541 26.4834 20.1527 26.4127 20.1527C24.7624 20.1527 23.1343 20.8559 21.9435 22.0804C20.7576 23.3016 20.1045 24.9448 20.1527 26.5896L20.1541 26.6378L20.1634 26.6852C20.1727 26.7339 20.1746 26.7837 20.1782 26.8325C20.1815 26.8831 20.1853 26.9327 20.1908 26.9812C20.1941 27.022 20.2001 27.074 20.2056 27.1244C20.2143 27.1972 20.2231 27.2706 20.225 27.3431L20.1544 28.2881C20.1492 28.3089 20.1122 28.4362 20.1122 28.4362C20.0662 28.6364 20.015 28.8116 19.9542 28.9765C19.9255 29.054 19.8915 29.1287 19.8567 29.2068L19.8447 29.2341C19.7735 29.388 19.6933 29.5403 19.6037 29.6889C19.5599 29.7623 19.5164 29.8343 19.4704 29.9025C19.3017 30.1473 19.1426 30.342 18.9728 30.5134C18.1632 31.3225 17.0841 31.7694 15.9348 31.7694Z" fill="white"/>
<path d="M4.30856 20.1437C3.15798 20.1437 2.0764 19.6963 1.26343 18.8836C0.449918 18.0692 0.00167645 16.9879 0.000854995 15.8374C0.000307359 14.6879 0.446904 13.6079 1.26014 12.7955C1.4269 12.6287 1.62104 12.4713 1.87076 12.2994C1.93593 12.2555 2.00931 12.2106 2.08269 12.1665C2.23165 12.0787 2.38362 11.9979 2.54572 11.9231C2.62896 11.8851 2.71165 11.8478 2.79955 11.815C2.95782 11.7569 3.13251 11.7054 3.3146 11.6649L3.42413 11.6342C3.44439 11.6282 3.46383 11.6217 3.48382 11.617L4.45834 11.5469C4.58484 11.5521 4.72175 11.5702 4.86523 11.5896L4.89535 11.5937C4.94546 11.5989 4.98407 11.6011 5.0235 11.603C5.03746 11.6036 5.05143 11.6036 5.06539 11.6058L5.10728 11.6132L5.14671 11.6145C5.219 11.6164 5.29019 11.6178 5.36139 11.6178C7.00977 11.6178 8.63789 10.9155 9.82791 9.69014C11.0141 8.46892 11.6671 6.82518 11.6195 5.18118L11.6181 5.13381L11.6088 5.08699C11.5987 5.03496 11.5976 4.98212 11.594 4.92872C11.5916 4.88546 11.5888 4.84192 11.5842 4.79674L11.5694 4.66394C11.5595 4.58508 11.5494 4.50512 11.5475 4.42517L11.6121 3.52075L11.6181 3.49994V3.48187C11.6233 3.46106 11.6586 3.34112 11.6586 3.34112C11.7134 3.10975 11.7622 2.94245 11.8169 2.79486C11.8476 2.71354 11.8856 2.63221 11.9243 2.54815C11.9944 2.39344 12.0765 2.23682 12.1712 2.07718L12.186 2.05254C12.2233 1.99038 12.2602 1.92849 12.3021 1.86634C12.473 1.61881 12.6296 1.42549 12.7936 1.26202C13.6077 0.448234 14.6893 0 15.8407 0C16.9913 0 18.0726 0.447693 18.8863 1.26066C20.5646 2.93971 20.5632 5.67241 18.8844 7.35064C18.7182 7.5174 18.5203 7.67812 18.2779 7.84214C18.2119 7.88896 18.155 7.9221 18.0964 7.95687L18.0643 7.97549C17.9064 8.06968 17.7508 8.15156 17.6041 8.21892C17.5173 8.25889 17.4359 8.29558 17.3532 8.32625C17.1917 8.38649 17.0203 8.43715 16.8267 8.48178C16.7862 8.49164 16.7495 8.50231 16.7128 8.51245C16.6906 8.51847 16.6681 8.5256 16.6454 8.53107L15.6909 8.59788C15.5701 8.59186 15.4409 8.5757 15.3051 8.55845L15.2465 8.55106C15.2024 8.54558 15.1616 8.54366 15.1224 8.54092C15.1066 8.5401 15.0904 8.5401 15.0745 8.53764L15.0425 8.53354L15.0006 8.53024C14.9294 8.52751 14.8585 8.52614 14.787 8.52614C13.1381 8.52614 11.5097 9.22848 10.32 10.4527C9.13323 11.6739 8.47963 13.3182 8.52645 14.9631L8.52782 15.011L8.5363 15.0583C8.54644 15.1063 8.54835 15.1564 8.55191 15.2051C8.5552 15.2558 8.55931 15.305 8.56451 15.3557C8.56862 15.3957 8.57437 15.4469 8.58066 15.4978C8.5886 15.5698 8.59792 15.6405 8.59929 15.7119L8.53056 16.6506C8.52535 16.6744 8.51741 16.6993 8.51002 16.7248L8.48592 16.8089C8.43801 17.0189 8.38735 17.1938 8.32985 17.3491C8.29918 17.4304 8.25975 17.5145 8.22032 17.6007C8.14968 17.7554 8.06972 17.9082 7.97608 18.0643C7.93172 18.1391 7.8901 18.2092 7.84546 18.2752C7.66885 18.5312 7.51661 18.7193 7.3504 18.8841C6.53689 19.6968 5.45695 20.1437 4.30856 20.1437Z" fill="white"/>
<path d="M42.6482 23.6059C41.4537 23.6059 40.2961 23.4363 39.1754 23.0971C38.0694 22.758 37.192 22.3082 36.5431 21.7478L37.5385 19.5137C38.1726 20.0151 38.9468 20.428 39.8611 20.7525C40.7901 21.0621 41.7191 21.217 42.6482 21.217C43.7984 21.217 44.6537 21.0326 45.2141 20.664C45.7892 20.2953 46.0767 19.8087 46.0767 19.2041C46.0767 18.7617 45.9145 18.4004 45.5901 18.1202C45.2804 17.8253 44.8823 17.5967 44.3956 17.4345C43.909 17.2723 43.2454 17.0879 42.4049 16.8815C41.2251 16.6013 40.2666 16.3211 39.5293 16.0409C38.8067 15.7608 38.18 15.3257 37.6491 14.7359C37.133 14.1313 36.8749 13.3202 36.8749 12.3027C36.8749 11.4474 37.1035 10.6732 37.5606 9.98012C38.0325 9.27228 38.733 8.71191 39.662 8.29901C40.6058 7.88611 41.756 7.67966 43.1127 7.67966C44.0565 7.67966 44.9855 7.79763 45.8998 8.03357C46.8141 8.26952 47.603 8.60869 48.2666 9.05108L47.3597 11.2852C46.6813 10.887 45.9735 10.5847 45.2362 10.3783C44.4989 10.1718 43.7837 10.0686 43.0906 10.0686C41.9551 10.0686 41.1072 10.2603 40.5468 10.6437C40.0012 11.0271 39.7284 11.5359 39.7284 12.17C39.7284 12.6124 39.8832 12.9737 40.1929 13.2538C40.5173 13.534 40.9228 13.7552 41.4095 13.9174C41.8961 14.0796 42.5597 14.264 43.4002 14.4704C44.5505 14.7359 45.4943 15.0161 46.2316 15.311C46.9689 15.5912 47.5956 16.0262 48.1118 16.6161C48.6426 17.2059 48.9081 18.0022 48.9081 19.005C48.9081 19.8603 48.6721 20.6345 48.2002 21.3276C47.7431 22.0207 47.0426 22.5736 46.0989 22.9865C45.1551 23.3995 44.0049 23.6059 42.6482 23.6059ZM58.5945 22.7432C58.27 23.0087 57.8719 23.2077 57.4 23.3405C56.9429 23.4732 56.4562 23.5395 55.9401 23.5395C54.6424 23.5395 53.6396 23.2004 52.9318 22.522C52.224 21.8437 51.87 20.8557 51.87 19.558V13.8732H49.9235V11.6612H51.87V8.96261H54.635V11.6612H57.7982V13.8732H54.635V19.4916C54.635 20.0667 54.7751 20.5091 55.0553 20.8188C55.3355 21.1137 55.741 21.2612 56.2719 21.2612C56.8912 21.2612 57.4074 21.099 57.8203 20.7746L58.5945 22.7432ZM65.3814 11.44C67.1215 11.44 68.4487 11.8603 69.363 12.7008C70.292 13.5267 70.7565 14.7801 70.7565 16.4612V23.3847H68.1464V21.9469C67.8072 22.463 67.3206 22.8612 66.6865 23.1414C66.0671 23.4068 65.3151 23.5395 64.4303 23.5395C63.5455 23.5395 62.7713 23.3921 62.1077 23.0971C61.4441 22.7875 60.928 22.3672 60.5593 21.8363C60.2054 21.2907 60.0284 20.6787 60.0284 20.0004C60.0284 18.9386 60.4192 18.0907 61.2008 17.4566C61.9971 16.8078 63.2432 16.4833 64.939 16.4833H67.9916V16.3064C67.9916 15.4806 67.7409 14.8465 67.2395 14.4041C66.7529 13.9617 66.0229 13.7405 65.0496 13.7405C64.386 13.7405 63.7298 13.8437 63.081 14.0502C62.4469 14.2566 61.9086 14.5442 61.4662 14.9128L60.3824 12.8999C61.0017 12.428 61.7464 12.0667 62.6165 11.8161C63.4865 11.5654 64.4082 11.44 65.3814 11.44ZM65.0054 21.5266C65.6985 21.5266 66.3105 21.3718 66.8413 21.0621C67.387 20.7377 67.7704 20.2806 67.9916 19.6907V18.3193H65.1381C63.5455 18.3193 62.7492 18.8428 62.7492 19.8898C62.7492 20.3912 62.9483 20.7893 63.3464 21.0842C63.7446 21.3792 64.2976 21.5266 65.0054 21.5266ZM76.9373 13.2981C77.7336 12.0594 79.1345 11.44 81.1401 11.44V14.0723C80.9041 14.028 80.6903 14.0059 80.4986 14.0059C79.4221 14.0059 78.5815 14.323 77.9769 14.9571C77.3723 15.5764 77.07 16.476 77.07 17.6557V23.3847H74.305V11.5727H76.9373V13.2981ZM91.0181 22.7432C90.6937 23.0087 90.2955 23.2077 89.8236 23.3405C89.3665 23.4732 88.8798 23.5395 88.3637 23.5395C87.066 23.5395 86.0633 23.2004 85.3554 22.522C84.6476 21.8437 84.2937 20.8557 84.2937 19.558V13.8732H82.3471V11.6612H84.2937V8.96261H87.0587V11.6612H90.2218V13.8732H87.0587V19.4916C87.0587 20.0667 87.1987 20.5091 87.4789 20.8188C87.7591 21.1137 88.1646 21.2612 88.6955 21.2612C89.3149 21.2612 89.831 21.099 90.2439 20.7746L91.0181 22.7432ZM103.6 19.8013H95.8585L94.3323 23.3847H91.3682L98.3359 7.90086H101.167L108.157 23.3847H105.149L103.6 19.8013ZM102.649 17.5451L99.7295 10.7764L96.8318 17.5451H102.649ZM110.126 7.90086H113.002V23.3847H110.126V7.90086Z" fill="white"/>
<path d="M39.1754 23.0971L39.119 23.281L39.1197 23.2812L39.1754 23.0971ZM36.5431 21.7478L36.3674 21.6696L36.3093 21.8L36.4174 21.8934L36.5431 21.7478ZM37.5385 19.5137L37.6578 19.3629L37.4636 19.2093L37.3628 19.4355L37.5385 19.5137ZM39.8611 20.7525L39.7967 20.9338L39.8003 20.9349L39.8611 20.7525ZM45.2141 20.664L45.1103 20.502L45.1084 20.5033L45.2141 20.664ZM45.5901 18.1202L45.4573 18.2596L45.4644 18.2658L45.5901 18.1202ZM44.3956 17.4345L44.4565 17.252L44.4565 17.252L44.3956 17.4345ZM42.4049 16.8815L42.4507 16.6947L42.4493 16.6943L42.4049 16.8815ZM39.5293 16.0409L39.4597 16.2203L39.461 16.2207L39.5293 16.0409ZM37.6491 14.7359L37.5028 14.8608L37.5061 14.8645L37.6491 14.7359ZM37.5606 9.98012L37.4006 9.87342L37.4001 9.87421L37.5606 9.98012ZM39.662 8.29901L39.5849 8.12279L39.5839 8.12324L39.662 8.29901ZM45.8998 8.03357L45.8517 8.21982L45.8517 8.21982L45.8998 8.03357ZM48.2666 9.05108L48.4448 9.12343L48.5038 8.97807L48.3733 8.89104L48.2666 9.05108ZM47.3597 11.2852L47.2623 11.4511L47.4542 11.5637L47.5379 11.3575L47.3597 11.2852ZM45.2362 10.3783L45.1843 10.5635L45.1843 10.5635L45.2362 10.3783ZM40.5468 10.6437L40.4382 10.485L40.4362 10.4863L40.5468 10.6437ZM40.1929 13.2538L40.0638 13.3965L40.0672 13.3994L40.1929 13.2538ZM41.4095 13.9174L41.4703 13.735L41.4703 13.735L41.4095 13.9174ZM43.4002 14.4704L43.3544 14.6572L43.357 14.6579L43.4002 14.4704ZM46.2316 15.311L46.1601 15.4896L46.1633 15.4908L46.2316 15.311ZM48.1118 16.6161L47.967 16.7427L47.9688 16.7447L48.1118 16.6161ZM48.2002 21.3276L48.0412 21.2193L48.0397 21.2217L48.2002 21.3276ZM46.0989 22.9865L46.0218 22.8103L46.0218 22.8103L46.0989 22.9865ZM42.6482 23.4136C41.4722 23.4136 40.3334 23.2466 39.2311 22.913L39.1197 23.2812C40.2588 23.626 41.4352 23.7982 42.6482 23.7982V23.4136ZM39.2318 22.9133C38.1429 22.5793 37.2917 22.1402 36.6688 21.6023L36.4174 21.8934C37.0922 22.4762 37.9959 22.9366 39.119 23.281L39.2318 22.9133ZM36.7188 21.8261L37.7142 19.592L37.3628 19.4355L36.3674 21.6696L36.7188 21.8261ZM37.4192 19.6646C38.0728 20.1814 38.8665 20.6036 39.7968 20.9337L39.9254 20.5712C39.0271 20.2524 38.2724 19.8489 37.6578 19.3629L37.4192 19.6646ZM39.8003 20.9349C40.7478 21.2508 41.6974 21.4093 42.6482 21.4093V21.0246C41.7409 21.0246 40.8324 20.8735 39.9219 20.57L39.8003 20.9349ZM42.6482 21.4093C43.8122 21.4093 44.7128 21.224 45.3198 20.8247L45.1084 20.5033C44.5946 20.8412 43.7846 21.0246 42.6482 21.0246V21.4093ZM45.3179 20.8259C45.9397 20.4273 46.2691 19.8837 46.2691 19.2041H45.8844C45.8844 19.7337 45.6387 20.1633 45.1103 20.502L45.3179 20.8259ZM46.2691 19.2041C46.2691 18.7078 46.0841 18.2927 45.7158 17.9746L45.4644 18.2658C45.745 18.5081 45.8844 18.8155 45.8844 19.2041H46.2691ZM45.7228 17.9809C45.3889 17.663 44.9646 17.4214 44.4565 17.252L44.3348 17.617C44.7999 17.772 45.1719 17.9876 45.4575 18.2595L45.7228 17.9809ZM44.4565 17.252C43.9627 17.0874 43.2934 16.9017 42.4507 16.6947L42.359 17.0683C43.1974 17.2742 43.8553 17.4571 44.3348 17.617L44.4565 17.252ZM42.4493 16.6943C41.2739 16.4152 40.3242 16.1372 39.5976 15.8611L39.461 16.2207C40.209 16.505 41.1764 16.7874 42.3604 17.0686L42.4493 16.6943ZM39.5988 15.8616C38.905 15.5926 38.3033 15.1752 37.7921 14.6072L37.5061 14.8645C38.0567 15.4763 38.7084 15.9289 39.4597 16.2203L39.5988 15.8616ZM37.7954 14.611C37.3165 14.05 37.0673 13.2875 37.0673 12.3027H36.6826C36.6826 13.3529 36.9494 14.2125 37.5028 14.8608L37.7954 14.611ZM37.0673 12.3027C37.0673 11.4838 37.2854 10.7467 37.7212 10.086L37.4001 9.87421C36.9215 10.5997 36.6826 11.4109 36.6826 12.3027H37.0673ZM37.7207 10.0868C38.1687 9.41477 38.8378 8.8758 39.7401 8.47478L39.5839 8.12324C38.6281 8.54803 37.8963 9.1298 37.4006 9.87342L37.7207 10.0868ZM39.7391 8.47523C40.6522 8.07576 41.7745 7.872 43.1127 7.872V7.48731C41.7375 7.48731 40.5594 7.69645 39.5849 8.12279L39.7391 8.47523ZM43.1127 7.872C44.0402 7.872 44.9531 7.98792 45.8517 8.21982L45.9478 7.84733C45.0179 7.60734 44.0727 7.48731 43.1127 7.48731V7.872ZM45.8517 8.21982C46.7489 8.45134 47.5172 8.78266 48.1599 9.21113L48.3733 8.89104C47.6888 8.43472 46.8793 8.0877 45.9478 7.84733L45.8517 8.21982ZM48.0884 8.97874L47.1815 11.2128L47.5379 11.3575L48.4448 9.12343L48.0884 8.97874ZM47.4571 11.1193C46.7648 10.713 46.0417 10.4041 45.2881 10.193L45.1843 10.5635C45.9053 10.7654 46.5979 11.0611 47.2623 11.4511L47.4571 11.1193ZM45.2881 10.193C44.5356 9.98236 43.8029 9.87625 43.0906 9.87625V10.2609C43.7644 10.2609 44.4621 10.3613 45.1843 10.5635L45.2881 10.193ZM43.0906 9.87625C41.9398 9.87625 41.0456 10.0694 40.4382 10.485L40.6554 10.8025C41.1688 10.4512 41.9704 10.2609 43.0906 10.2609V9.87625ZM40.4362 10.4863C39.8425 10.9036 39.536 11.4695 39.536 12.17H39.9207C39.9207 11.6022 40.1599 11.1507 40.6574 10.8011L40.4362 10.4863ZM39.536 12.17C39.536 12.6631 39.7112 13.0775 40.0638 13.3965L40.3219 13.1112C40.0552 12.8699 39.9207 12.5617 39.9207 12.17H39.536ZM40.0672 13.3994C40.4139 13.6989 40.8428 13.9313 41.3486 14.0999L41.4703 13.735C41.0029 13.5792 40.6207 13.3691 40.3186 13.1083L40.0672 13.3994ZM41.3486 14.0999C41.8424 14.2645 42.5117 14.4503 43.3544 14.6572L43.4461 14.2836C42.6077 14.0777 41.9498 13.8948 41.4703 13.735L41.3486 14.0999ZM43.357 14.6579C44.5018 14.922 45.4352 15.1996 46.1601 15.4896L46.303 15.1324C45.5533 14.8325 44.5992 14.5497 43.4435 14.283L43.357 14.6579ZM46.1633 15.4908C46.8713 15.7599 47.4718 16.1767 47.967 16.7427L48.2565 16.4894C47.7195 15.8757 47.0665 15.4225 46.2999 15.1312L46.1633 15.4908ZM47.9688 16.7447C48.4602 17.2907 48.7157 18.0368 48.7157 19.005H49.1004C49.1004 17.9677 48.8251 17.1211 48.2547 16.4874L47.9688 16.7447ZM48.7157 19.005C48.7157 19.8225 48.4909 20.5588 48.0412 21.2193L48.3592 21.4358C48.8533 20.7101 49.1004 19.8981 49.1004 19.005H48.7157ZM48.0397 21.2217C47.6074 21.877 46.9397 22.4087 46.0218 22.8103L46.176 23.1628C47.1456 22.7386 47.8788 22.1643 48.3608 21.4335L48.0397 21.2217ZM46.0218 22.8103C45.1087 23.2098 43.9863 23.4136 42.6482 23.4136V23.7982C44.0234 23.7982 45.2015 23.5891 46.176 23.1628L46.0218 22.8103ZM58.5945 22.7432L58.7163 22.8921L58.8248 22.8033L58.7735 22.6728L58.5945 22.7432ZM57.4 23.3405L57.3479 23.1553L57.3464 23.1557L57.4 23.3405ZM52.9318 22.522L52.7987 22.6609L52.7987 22.6609L52.9318 22.522ZM51.87 13.8732H52.0624V13.6809H51.87V13.8732ZM49.9235 13.8732H49.7312V14.0655H49.9235V13.8732ZM49.9235 11.6612V11.4689H49.7312V11.6612H49.9235ZM51.87 11.6612V11.8536H52.0624V11.6612H51.87ZM51.87 8.96261V8.77026H51.6777V8.96261H51.87ZM54.635 8.96261H54.8274V8.77026H54.635V8.96261ZM54.635 11.6612H54.4427V11.8536H54.635V11.6612ZM57.7982 11.6612H57.9905V11.4689H57.7982V11.6612ZM57.7982 13.8732V14.0655H57.9905V13.8732H57.7982ZM54.635 13.8732V13.6809H54.4427V13.8732H54.635ZM55.0553 20.8188L54.9126 20.9479L54.9158 20.9513L55.0553 20.8188ZM57.8203 20.7746L57.9993 20.7042L57.9047 20.4636L57.7014 20.6233L57.8203 20.7746ZM58.4727 22.5944C58.1719 22.8404 57.7986 23.0286 57.3479 23.1553L57.4521 23.5256C57.9452 23.3869 58.3682 23.1769 58.7163 22.8921L58.4727 22.5944ZM57.3464 23.1557C56.9081 23.283 56.4396 23.3472 55.9401 23.3472V23.7319C56.4728 23.7319 56.9777 23.6634 57.4536 23.5252L57.3464 23.1557ZM55.9401 23.3472C54.6755 23.3472 53.7265 23.0172 53.0649 22.3832L52.7987 22.6609C53.5527 23.3835 54.6093 23.7319 55.9401 23.7319V23.3472ZM53.0649 22.3832C52.406 21.7518 52.0624 20.8209 52.0624 19.558H51.6777C51.6777 20.8904 52.0419 21.9356 52.7987 22.6609L53.0649 22.3832ZM52.0624 19.558V13.8732H51.6777V19.558H52.0624ZM51.87 13.6809H49.9235V14.0655H51.87V13.6809ZM50.1159 13.8732V11.6612H49.7312V13.8732H50.1159ZM49.9235 11.8536H51.87V11.4689H49.9235V11.8536ZM52.0624 11.6612V8.96261H51.6777V11.6612H52.0624ZM51.87 9.15495H54.635V8.77026H51.87V9.15495ZM54.4427 8.96261V11.6612H54.8274V8.96261H54.4427ZM54.635 11.8536H57.7982V11.4689H54.635V11.8536ZM57.6058 11.6612V13.8732H57.9905V11.6612H57.6058ZM57.7982 13.6809H54.635V14.0655H57.7982V13.6809ZM54.4427 13.8732V19.4916H54.8274V13.8732H54.4427ZM54.4427 19.4916C54.4427 20.0963 54.5901 20.5914 54.9127 20.9479L55.1979 20.6898C54.9601 20.4269 54.8274 20.0371 54.8274 19.4916H54.4427ZM54.9158 20.9513C55.2425 21.2952 55.7052 21.4536 56.2719 21.4536V21.0689C55.7769 21.0689 55.4284 20.9323 55.1947 20.6863L54.9158 20.9513ZM56.2719 21.4536C56.9263 21.4536 57.4865 21.2814 57.9391 20.9258L57.7014 20.6233C57.3282 20.9165 56.8562 21.0689 56.2719 21.0689V21.4536ZM57.6413 20.845L58.4155 22.8136L58.7735 22.6728L57.9993 20.7042L57.6413 20.845ZM69.363 12.7008L69.2328 12.8425L69.2352 12.8446L69.363 12.7008ZM70.7565 23.3847V23.5771H70.9489V23.3847H70.7565ZM68.1464 23.3847H67.9541V23.5771H68.1464V23.3847ZM68.1464 21.9469H68.3388V21.304L67.9857 21.8413L68.1464 21.9469ZM66.6865 23.1414L66.7623 23.3182L66.7642 23.3173L66.6865 23.1414ZM62.1077 23.0971L62.0264 23.2715L62.0296 23.2729L62.1077 23.0971ZM60.5593 21.8363L60.3979 21.941L60.4013 21.946L60.5593 21.8363ZM61.2008 17.4566L61.322 17.606L61.3223 17.6057L61.2008 17.4566ZM67.9916 16.4833V16.6757H68.1839V16.4833H67.9916ZM67.2395 14.4041L67.1101 14.5464L67.1122 14.5483L67.2395 14.4041ZM63.081 14.0502L63.0227 13.8669L63.0214 13.8673L63.081 14.0502ZM61.4662 14.9128L61.2969 15.004L61.4085 15.2113L61.5894 15.0606L61.4662 14.9128ZM60.3824 12.8999L60.2658 12.7469L60.1351 12.8465L60.213 12.9911L60.3824 12.8999ZM62.6165 11.8161L62.6697 12.0009L62.6697 12.0009L62.6165 11.8161ZM66.8413 21.0621L66.9383 21.2283L66.9396 21.2275L66.8413 21.0621ZM67.9916 19.6907L68.1717 19.7582L68.1839 19.7256V19.6907H67.9916ZM67.9916 18.3193H68.1839V18.1269H67.9916V18.3193ZM63.3464 21.0842L63.2319 21.2388L63.2319 21.2388L63.3464 21.0842ZM65.3814 11.6324C67.0927 11.6324 68.3661 12.0456 69.2328 12.8424L69.4932 12.5593C68.5313 11.675 67.1504 11.2477 65.3814 11.2477V11.6324ZM69.2352 12.8446C70.1101 13.6223 70.5642 14.8148 70.5642 16.4612H70.9489C70.9489 14.7455 70.4739 13.431 69.4908 12.5571L69.2352 12.8446ZM70.5642 16.4612V23.3847H70.9489V16.4612H70.5642ZM70.7565 23.1924H68.1464V23.5771H70.7565V23.1924ZM68.3388 23.3847V21.9469H67.9541V23.3847H68.3388ZM67.9857 21.8413C67.6692 22.3228 67.2133 22.6983 66.6088 22.9655L66.7642 23.3173C67.4279 23.0241 67.9452 22.6033 68.3072 22.0526L67.9857 21.8413ZM66.6107 22.9646C66.0216 23.2171 65.2968 23.3472 64.4303 23.3472V23.7319C65.3334 23.7319 66.1127 23.5965 66.7623 23.3182L66.6107 22.9646ZM64.4303 23.3472C63.5667 23.3472 62.8201 23.2033 62.1858 22.9214L62.0296 23.2729C62.7225 23.5809 63.5243 23.7319 64.4303 23.7319V23.3472ZM62.189 22.9228C61.5521 22.6256 61.0641 22.226 60.7173 21.7266L60.4013 21.946C60.7919 22.5084 61.3361 22.9493 62.0264 23.2714L62.189 22.9228ZM60.7207 21.7316C60.3879 21.2186 60.2208 20.6433 60.2208 20.0004H59.8361C59.8361 20.7142 60.0229 21.3628 60.398 21.941L60.7207 21.7316ZM60.2208 20.0004C60.2208 18.9929 60.5882 18.2013 61.322 17.606L61.0796 17.3072C60.2503 17.9801 59.8361 18.8843 59.8361 20.0004H60.2208ZM61.3223 17.6057C62.0682 16.998 63.2609 16.6757 64.939 16.6757V16.291C63.2255 16.291 61.926 16.6175 61.0793 17.3075L61.3223 17.6057ZM64.939 16.6757H67.9916V16.291H64.939V16.6757ZM68.1839 16.4833V16.3064H67.7992V16.4833H68.1839ZM68.1839 16.3064C68.1839 15.4394 67.919 14.7471 67.3668 14.2598L67.1122 14.5483C67.5628 14.9458 67.7992 15.5217 67.7992 16.3064H68.1839ZM67.3689 14.2617C66.8331 13.7747 66.0483 13.5481 65.0496 13.5481V13.9328C65.9976 13.9328 66.6726 14.1487 67.1101 14.5464L67.3689 14.2617ZM65.0496 13.5481C64.3657 13.5481 63.6899 13.6546 63.0227 13.8669L63.1393 14.2334C63.7698 14.0328 64.4064 13.9328 65.0496 13.9328V13.5481ZM63.0214 13.8673C62.3677 14.0801 61.807 14.3785 61.3431 14.7651L61.5894 15.0606C62.0103 14.7098 62.526 14.4331 63.1405 14.2331L63.0214 13.8673ZM61.6356 14.8216L60.5517 12.8087L60.213 12.9911L61.2969 15.004L61.6356 14.8216ZM60.4989 13.0529C61.0965 12.5976 61.8189 12.246 62.6697 12.0009L62.5632 11.6312C61.6739 11.8875 60.9069 12.2585 60.2658 12.7469L60.4989 13.0529ZM62.6697 12.0009C63.5212 11.7555 64.4248 11.6324 65.3814 11.6324V11.2477C64.3915 11.2477 63.4518 11.3752 62.5632 11.6312L62.6697 12.0009ZM65.0054 21.719C65.7281 21.719 66.3744 21.5572 66.9383 21.2283L66.7444 20.896C66.2466 21.1864 65.6689 21.3343 65.0054 21.3343V21.719ZM66.9396 21.2275C67.5225 20.8809 67.935 20.3894 68.1717 19.7582L67.8115 19.6232C67.6058 20.1717 67.2514 20.5945 66.743 20.8968L66.9396 21.2275ZM68.1839 19.6907V18.3193H67.7992V19.6907H68.1839ZM67.9916 18.1269H65.1381V18.5116H67.9916V18.1269ZM65.1381 18.1269C64.3268 18.1269 63.685 18.2592 63.2408 18.5512C62.7825 18.8525 62.5568 19.3091 62.5568 19.8898H62.9415C62.9415 19.4235 63.1141 19.0948 63.4521 18.8726C63.8042 18.6411 64.3568 18.5116 65.1381 18.5116V18.1269ZM62.5568 19.8898C62.5568 20.4512 62.7841 20.9071 63.2319 21.2388L63.4609 20.9297C63.1124 20.6715 62.9415 20.3311 62.9415 19.8898H62.5568ZM63.2319 21.2388C63.6747 21.5668 64.2734 21.719 65.0054 21.719V21.3343C64.3217 21.3343 63.8144 21.1916 63.4609 20.9297L63.2319 21.2388ZM76.9373 13.2981H76.7449V13.953L77.0991 13.4021L76.9373 13.2981ZM81.1401 11.44H81.3324V11.2477H81.1401V11.44ZM81.1401 14.0723L81.1046 14.2613L81.3324 14.304V14.0723H81.1401ZM77.9769 14.9571L78.1146 15.0914L78.1161 15.0898L77.9769 14.9571ZM77.07 23.3847V23.5771H77.2624V23.3847H77.07ZM74.305 23.3847H74.1127V23.5771H74.305V23.3847ZM74.305 11.5727V11.3804H74.1127V11.5727H74.305ZM76.9373 11.5727H77.1296V11.3804H76.9373V11.5727ZM77.0991 13.4021C77.8478 12.2374 79.1738 11.6324 81.1401 11.6324V11.2477C79.0953 11.2477 77.6194 11.8814 76.7755 13.1941L77.0991 13.4021ZM80.9477 11.44V14.0723H81.3324V11.44H80.9477ZM81.1755 13.8832C80.9307 13.8373 80.7047 13.8136 80.4986 13.8136V14.1983C80.6759 14.1983 80.8776 14.2188 81.1046 14.2613L81.1755 13.8832ZM80.4986 13.8136C79.3824 13.8136 78.4866 14.1438 77.8377 14.8243L78.1161 15.0898C78.6764 14.5022 79.4618 14.1983 80.4986 14.1983V13.8136ZM77.8393 14.8227C77.1885 15.4894 76.8777 16.4444 76.8777 17.6557H77.2624C77.2624 16.5076 77.5562 15.6634 78.1146 15.0914L77.8393 14.8227ZM76.8777 17.6557V23.3847H77.2624V17.6557H76.8777ZM77.07 23.1924H74.305V23.5771H77.07V23.1924ZM74.4974 23.3847V11.5727H74.1127V23.3847H74.4974ZM74.305 11.7651H76.9373V11.3804H74.305V11.7651ZM76.7449 11.5727V13.2981H77.1296V11.5727H76.7449ZM91.0181 22.7432L91.1399 22.8921L91.2484 22.8033L91.1971 22.6728L91.0181 22.7432ZM89.8236 23.3405L89.7715 23.1553L89.77 23.1557L89.8236 23.3405ZM85.3554 22.522L85.2223 22.6609L85.2223 22.6609L85.3554 22.522ZM84.2937 13.8732H84.486V13.6809H84.2937V13.8732ZM82.3471 13.8732H82.1548V14.0655H82.3471V13.8732ZM82.3471 11.6612V11.4689H82.1548V11.6612H82.3471ZM84.2937 11.6612V11.8536H84.486V11.6612H84.2937ZM84.2937 8.96261V8.77026H84.1013V8.96261H84.2937ZM87.0587 8.96261H87.251V8.77026H87.0587V8.96261ZM87.0587 11.6612H86.8663V11.8536H87.0587V11.6612ZM90.2218 11.6612H90.4141V11.4689H90.2218V11.6612ZM90.2218 13.8732V14.0655H90.4141V13.8732H90.2218ZM87.0587 13.8732V13.6809H86.8663V13.8732H87.0587ZM87.4789 20.8188L87.3363 20.9479L87.3395 20.9513L87.4789 20.8188ZM90.2439 20.7746L90.4229 20.7042L90.3283 20.4636L90.1251 20.6233L90.2439 20.7746ZM90.8963 22.5944C90.5955 22.8404 90.2222 23.0286 89.7715 23.1553L89.8757 23.5256C90.3688 23.3869 90.7918 23.1769 91.1399 22.8921L90.8963 22.5944ZM89.77 23.1557C89.3317 23.283 88.8632 23.3472 88.3637 23.3472V23.7319C88.8965 23.7319 89.4013 23.6634 89.8773 23.5252L89.77 23.1557ZM88.3637 23.3472C87.0991 23.3472 86.1502 23.0172 85.4885 22.3832L85.2223 22.6609C85.9764 23.3835 87.0329 23.7319 88.3637 23.7319V23.3472ZM85.4885 22.3832C84.8297 21.7518 84.486 20.8209 84.486 19.558H84.1013C84.1013 20.8904 84.4655 21.9356 85.2223 22.6609L85.4885 22.3832ZM84.486 19.558V13.8732H84.1013V19.558H84.486ZM84.2937 13.6809H82.3471V14.0655H84.2937V13.6809ZM82.5395 13.8732V11.6612H82.1548V13.8732H82.5395ZM82.3471 11.8536H84.2937V11.4689H82.3471V11.8536ZM84.486 11.6612V8.96261H84.1013V11.6612H84.486ZM84.2937 9.15495H87.0587V8.77026H84.2937V9.15495ZM86.8663 8.96261V11.6612H87.251V8.96261H86.8663ZM87.0587 11.8536H90.2218V11.4689H87.0587V11.8536ZM90.0294 11.6612V13.8732H90.4141V11.6612H90.0294ZM90.2218 13.6809H87.0587V14.0655H90.2218V13.6809ZM86.8663 13.8732V19.4916H87.251V13.8732H86.8663ZM86.8663 19.4916C86.8663 20.0963 87.0138 20.5914 87.3363 20.9479L87.6216 20.6898C87.3837 20.4269 87.251 20.0371 87.251 19.4916H86.8663ZM87.3395 20.9513C87.6662 21.2952 88.1288 21.4536 88.6955 21.4536V21.0689C88.2005 21.0689 87.8521 20.9323 87.6184 20.6863L87.3395 20.9513ZM88.6955 21.4536C89.3499 21.4536 89.9101 21.2814 90.3627 20.9258L90.1251 20.6233C89.7519 20.9165 89.2798 21.0689 88.6955 21.0689V21.4536ZM90.0649 20.845L90.8391 22.8136L91.1971 22.6728L90.4229 20.7042L90.0649 20.845ZM103.6 19.8013L103.777 19.725L103.727 19.609H103.6V19.8013ZM95.8585 19.8013V19.609H95.7314L95.6816 19.7259L95.8585 19.8013ZM94.3323 23.3847V23.5771H94.4594L94.5092 23.4601L94.3323 23.3847ZM91.3682 23.3847L91.1928 23.3058L91.0707 23.5771H91.3682V23.3847ZM98.3359 7.90086V7.70851H98.2116L98.1605 7.82192L98.3359 7.90086ZM101.167 7.90086L101.343 7.82171L101.291 7.70851H101.167V7.90086ZM108.157 23.3847V23.5771H108.455L108.332 23.3056L108.157 23.3847ZM105.149 23.3847L104.972 23.461L105.022 23.5771H105.149V23.3847ZM102.649 17.5451V17.7374H102.942L102.826 17.4689L102.649 17.5451ZM99.7295 10.7764L99.9061 10.7002L99.7288 10.2893L99.5527 10.7007L99.7295 10.7764ZM96.8318 17.5451L96.655 17.4694L96.5402 17.7374H96.8318V17.5451ZM103.6 19.609H95.8585V19.9936H103.6V19.609ZM95.6816 19.7259L94.1553 23.3093L94.5092 23.4601L96.0355 19.8767L95.6816 19.7259ZM94.3323 23.1924H91.3682V23.5771H94.3323V23.1924ZM91.5436 23.4636L98.5113 7.97979L98.1605 7.82192L91.1928 23.3058L91.5436 23.4636ZM98.3359 8.0932H101.167V7.70851H98.3359V8.0932ZM100.992 7.98L107.982 23.4638L108.332 23.3056L101.343 7.82171L100.992 7.98ZM108.157 23.1924H105.149V23.5771H108.157V23.1924ZM105.325 23.3084L103.777 19.725L103.424 19.8776L104.972 23.461L105.325 23.3084ZM102.826 17.4689L99.9061 10.7002L99.5529 10.8526L102.473 17.6213L102.826 17.4689ZM99.5527 10.7007L96.655 17.4694L97.0086 17.6208L99.9063 10.8521L99.5527 10.7007ZM96.8318 17.7374H102.649V17.3527H96.8318V17.7374ZM110.126 7.90086V7.70851H109.934V7.90086H110.126ZM113.002 7.90086H113.194V7.70851H113.002V7.90086ZM113.002 23.3847V23.5771H113.194V23.3847H113.002ZM110.126 23.3847H109.934V23.5771H110.126V23.3847ZM110.126 8.0932H113.002V7.70851H110.126V8.0932ZM112.81 7.90086V23.3847H113.194V7.90086H112.81ZM113.002 23.1924H110.126V23.5771H113.002V23.1924ZM110.319 23.3847V7.90086H109.934V23.3847H110.319Z" fill="white"/>
</svg>
